<svg xmlns="http://www.w3.org/2000/svg" width="27" height="27" viewBox="0 0 26 26" fill="none">
  <path fill-rule="evenodd" clip-rule="evenodd" d="M7.89967 11.7H0C0.652241 5.13068 6.19486 0 12.9358 0C19.6768 0 25.2194 5.13068 25.8716 11.7H17.972C17.3948 9.4572 15.3588 7.8 12.9359 7.8C10.5129 7.8 8.47693 9.4572 7.89967 11.7ZM7.89967 14.3H0C0.652243 20.8693 6.19486 26 12.9358 26C19.6768 26 25.2194 20.8693 25.8716 14.3H17.972C17.3948 16.5428 15.3588 18.2 12.9359 18.2C10.5129 18.2 8.47693 16.5428 7.89967 14.3ZM5.12233 20.8135C3.83626 19.5275 2.89994 17.957 2.37459 16.25H6.86993C7.18567 16.8394 7.58837 17.3847 8.06976 17.8661C9.36033 19.1567 11.1107 19.8817 12.9359 19.8817C14.761 19.8817 16.5114 19.1567 17.802 17.8661C18.2833 17.3847 18.686 16.8394 19.0018 16.25H23.4971C22.9718 17.957 22.0355 19.5275 20.7494 20.8135C18.6771 22.8858 15.8665 24.05 12.9359 24.05C10.0052 24.05 7.1946 22.8858 5.12233 20.8135ZM13 10C11.3432 10 10 11.3431 10 13C10 14.6569 11.3432 16 13 16C14.6569 16 16 14.6569 16 13C16 11.3431 14.6569 10 13 10Z" fill="#5E656A"/>
</svg>